  0
SECTION
  2
HEADER
  9
$ACADVER
  1
AC1014
  9
$HANDSEED
  5
FFFF
  9
$INSUNITS
 70
     4
  9
$MEASUREMENT
 70
     1
  0
ENDSEC
  0
SECTION
  2
TABLES
  0
TABLE
  2
VPORT
  5
8
330
0
100
AcDbSymbolTable
 70
     4
  0
VPORT
  5
2E
330
8
100
AcDbSymbolTableRecord
100
AcDbViewportTableRecord
  2
*ACTIVE
 70
     0
 10
0.0
 20
0.0
 11
1.0
 21
1.0
 12
210.0
 22
148.5
 13
0.0
 23
0.0
 14
10.0
 24
10.0
 15
10.0
 25
10.0
 16
0.0
 26
0.0
 36
1.0
 17
0.0
 27
0.0
 37
0.0
 40
341.0
 41
1.24
 42
50.0
 43
0.0
 44
0.0
 50
0.0
 51
0.0
 71
     0
 72
   100
 73
     1
 74
     3
 75
     0
 76
     0
 77
     0
 78
     0
  0
ENDTAB
  0
TABLE
  2
LTYPE
  5
5
330
0
100
AcDbSymbolTable
 70
     1
  0
LTYPE
  5
14
330
5
100
AcDbSymbolTableRecord
100
AcDbLinetypeTableRecord
  2
BYBLOCK
 70
     0
  3

 72
    65
 73
     0
 40
0.0
  0
LTYPE
  5
15
330
5
100
AcDbSymbolTableRecord
100
AcDbLinetypeTableRecord
  2
BYLAYER
 70
     0
  3

 72
    65
 73
     0
 40
0.0
  0
LTYPE
  5
16
330
5
100
AcDbSymbolTableRecord
100
AcDbLinetypeTableRecord
  2
CONTINUOUS
 70
     0
  3
Solid line
 72
    65
 73
     0
 40
0.0
  0
ENDTAB
  0
TABLE
  2
LAYER
  5
2
100
AcDbSymbolTable
 70
1
  0
LAYER
  5
50
100
AcDbSymbolTableRecord
100
AcDbLayerTableRecord
  2
0
 70
0
  6
CONTINUOUS
  0
ENDTAB
  0
TABLE
  2
STYLE
  5
3
330
0
100
AcDbSymbolTable
 70
     1
  0
STYLE
  5
11
330
3
100
AcDbSymbolTableRecord
100
AcDbTextStyleTableRecord
  2
STANDARD
 70
     0
 40
0.0
 41
1.0
 50
0.0
 71
     0
 42
2.5
  3
txt
  4

  0
ENDTAB
  0
TABLE
  2
VIEW
  5
6
330
0
100
AcDbSymbolTable
 70
     0
  0
ENDTAB
  0
TABLE
  2
UCS
  5
7
330
0
100
AcDbSymbolTable
 70
     0
  0
ENDTAB
  0
TABLE
  2
APPID
  5
9
330
0
100
AcDbSymbolTable
 70
     2
  0
APPID
  5
12
330
9
100
AcDbSymbolTableRecord
100
AcDbRegAppTableRecord
  2
ACAD
 70
     0
  0
ENDTAB
  0
TABLE
  2
DIMSTYLE
  5
A
330
0
100
AcDbSymbolTable
 70
     1
  0
DIMSTYLE
105
27
330
A
100
AcDbSymbolTableRecord
100
AcDbDimStyleTableRecord
  2
ISO-25
 70
     0
  3

  4

  5

  6

  7

 40
1.0
 41
2.5
 42
0.625
 43
3.75
 44
1.25
 45
0.0
 46
0.0
 47
0.0
 48
0.0
140
2.5
141
2.5
142
0.0
143
0.03937007874016
144
1.0
145
0.0
146
1.0
147
0.625
 71
     0
 72
     0
 73
     0
 74
     0
 75
     0
 76
     0
 77
     1
 78
     8
170
     0
171
     3
172
     1
173
     0
174
     0
175
     0
176
     0
177
     0
178
     0
270
     2
271
     2
272
     2
273
     2
274
     3
340
11
275
     0
280
     0
281
     0
282
     0
283
     0
284
     8
285
     0
286
     0
287
     3
288
     0
  0
ENDTAB
  0
TABLE
  2
BLOCK_RECORD
  5
1
330
0
100
AcDbSymbolTable
 70
     1
  0
BLOCK_RECORD
  5
1F
330
1
100
AcDbSymbolTableRecord
100
AcDbBlockTableRecord
  2
*MODEL_SPACE
  0
BLOCK_RECORD
  5
1B
330
1
100
AcDbSymbolTableRecord
100
AcDbBlockTableRecord
  2
*PAPER_SPACE
  0
ENDTAB
  0
ENDSEC
  0
SECTION
  2
BLOCKS
  0
BLOCK
  5
20
330
1F
100
AcDbEntity
  8
0
100
AcDbBlockBegin
  2
*MODEL_SPACE
 70
     0
 10
0.0
 20
0.0
 30
0.0
  3
*MODEL_SPACE
  1

  0
ENDBLK
  5
21
330
1F
100
AcDbEntity
  8
0
100
AcDbBlockEnd
  0
BLOCK
  5
1C
330
1B
100
AcDbEntity
 67
     1
  8
0
100
AcDbBlockBegin
  2
*PAPER_SPACE
  1

  0
ENDBLK
  5
1D
330
1B
100
AcDbEntity
 67
     1
  8
0
100
AcDbBlockEnd
  0
ENDSEC
  0
SECTION
  2
ENTITIES
  0
SPLINE
  5
100
100
AcDbEntity
  8
0
 62
7
100
AcDbSpline
 70
8
 71
3
 72
8
 73
4
 74
0
 40
0
 40
0
 40
0
 40
0
 40
1
 40
1
 40
1
 40
1
 10
59.300000
 20
67.507200
 30
0.0
 10
59.300000
 20
66.935575
 30
0.0
 10
59.604958
 20
66.407372
 30
0.0
 10
60.100000
 20
66.121559
 30
0.0
  0
SPLINE
  5
101
100
AcDbEntity
  8
0
 62
7
100
AcDbSpline
 70
8
 71
3
 72
8
 73
4
 74
0
 40
0
 40
0
 40
0
 40
0
 40
1
 40
1
 40
1
 40
1
 10
60.100000
 20
66.121559
 30
0.0
 10
60.595042
 20
65.835747
 30
0.0
 10
61.204958
 20
65.835747
 30
0.0
 10
61.700000
 20
66.121559
 30
0.0
  0
SPLINE
  5
102
100
AcDbEntity
  8
0
 62
7
100
AcDbSpline
 70
8
 71
3
 72
8
 73
4
 74
0
 40
0
 40
0
 40
0
 40
0
 40
1
 40
1
 40
1
 40
1
 10
61.700000
 20
66.121559
 30
0.0
 10
62.195042
 20
66.407372
 30
0.0
 10
62.500000
 20
66.935575
 30
0.0
 10
62.500000
 20
67.507200
 30
0.0
  0
SPLINE
  5
103
100
AcDbEntity
  8
0
 62
7
100
AcDbSpline
 70
8
 71
3
 72
8
 73
4
 74
0
 40
0
 40
0
 40
0
 40
0
 40
1
 40
1
 40
1
 40
1
 10
62.500000
 20
92.507200
 30
0.0
 10
62.500000
 20
93.078825
 30
0.0
 10
62.195042
 20
93.607028
 30
0.0
 10
61.700000
 20
93.892841
 30
0.0
  0
SPLINE
  5
104
100
AcDbEntity
  8
0
 62
7
100
AcDbSpline
 70
8
 71
3
 72
8
 73
4
 74
0
 40
0
 40
0
 40
0
 40
0
 40
1
 40
1
 40
1
 40
1
 10
61.700000
 20
93.892841
 30
0.0
 10
61.204958
 20
94.178653
 30
0.0
 10
60.595042
 20
94.178653
 30
0.0
 10
60.100000
 20
93.892841
 30
0.0
  0
SPLINE
  5
105
100
AcDbEntity
  8
0
 62
7
100
AcDbSpline
 70
8
 71
3
 72
8
 73
4
 74
0
 40
0
 40
0
 40
0
 40
0
 40
1
 40
1
 40
1
 40
1
 10
60.100000
 20
93.892841
 30
0.0
 10
59.604958
 20
93.607028
 30
0.0
 10
59.300000
 20
93.078825
 30
0.0
 10
59.300000
 20
92.507200
 30
0.0
  0
LWPOLYLINE
  5
106
100
AcDbEntity
  8
0
 62
7
100
AcDbPolyline
 90
2
 70
0
 10
62.500000
 20
92.507200
 30
0.0
 10
62.500000
 20
67.507200
 30
0.0
  0
SPLINE
  5
107
100
AcDbEntity
  8
0
 62
7
100
AcDbSpline
 70
8
 71
3
 72
8
 73
4
 74
0
 40
0
 40
0
 40
0
 40
0
 40
1
 40
1
 40
1
 40
1
 10
59.300000
 20
128.207200
 30
0.0
 10
59.300000
 20
127.635575
 30
0.0
 10
59.604958
 20
127.107372
 30
0.0
 10
60.100000
 20
126.821559
 30
0.0
  0
SPLINE
  5
108
100
AcDbEntity
  8
0
 62
7
100
AcDbSpline
 70
8
 71
3
 72
8
 73
4
 74
0
 40
0
 40
0
 40
0
 40
0
 40
1
 40
1
 40
1
 40
1
 10
60.100000
 20
126.821559
 30
0.0
 10
60.595042
 20
126.535747
 30
0.0
 10
61.204958
 20
126.535747
 30
0.0
 10
61.700000
 20
126.821559
 30
0.0
  0
SPLINE
  5
109
100
AcDbEntity
  8
0
 62
7
100
AcDbSpline
 70
8
 71
3
 72
8
 73
4
 74
0
 40
0
 40
0
 40
0
 40
0
 40
1
 40
1
 40
1
 40
1
 10
61.700000
 20
126.821559
 30
0.0
 10
62.195042
 20
127.107372
 30
0.0
 10
62.500000
 20
127.635575
 30
0.0
 10
62.500000
 20
128.207200
 30
0.0
  0
SPLINE
  5
10a
100
AcDbEntity
  8
0
 62
7
100
AcDbSpline
 70
8
 71
3
 72
8
 73
4
 74
0
 40
0
 40
0
 40
0
 40
0
 40
1
 40
1
 40
1
 40
1
 10
62.500000
 20
123.007200
 30
0.0
 10
62.500000
 20
123.578825
 30
0.0
 10
62.195042
 20
124.107028
 30
0.0
 10
61.700000
 20
124.392841
 30
0.0
  0
SPLINE
  5
10b
100
AcDbEntity
  8
0
 62
7
100
AcDbSpline
 70
8
 71
3
 72
8
 73
4
 74
0
 40
0
 40
0
 40
0
 40
0
 40
1
 40
1
 40
1
 40
1
 10
61.700000
 20
124.392841
 30
0.0
 10
61.204958
 20
124.678653
 30
0.0
 10
60.595042
 20
124.678653
 30
0.0
 10
60.100000
 20
124.392841
 30
0.0
  0
SPLINE
  5
10c
100
AcDbEntity
  8
0
 62
7
100
AcDbSpline
 70
8
 71
3
 72
8
 73
4
 74
0
 40
0
 40
0
 40
0
 40
0
 40
1
 40
1
 40
1
 40
1
 10
60.100000
 20
124.392841
 30
0.0
 10
59.604958
 20
124.107028
 30
0.0
 10
59.300000
 20
123.578825
 30
0.0
 10
59.300000
 20
123.007200
 30
0.0
  0
LWPOLYLINE
  5
10d
100
AcDbEntity
  8
0
 62
7
100
AcDbPolyline
 90
2
 70
0
 10
59.300000
 20
92.507200
 30
0.0
 10
59.300000
 20
67.507200
 30
0.0
  0
SPLINE
  5
10e
100
AcDbEntity
  8
0
 62
7
100
AcDbSpline
 70
8
 71
3
 72
8
 73
4
 74
0
 40
0
 40
0
 40
0
 40
0
 40
1
 40
1
 40
1
 40
1
 10
59.300000
 20
98.007200
 30
0.0
 10
59.300000
 20
97.435575
 30
0.0
 10
59.604958
 20
96.907372
 30
0.0
 10
60.100000
 20
96.621559
 30
0.0
  0
SPLINE
  5
10f
100
AcDbEntity
  8
0
 62
7
100
AcDbSpline
 70
8
 71
3
 72
8
 73
4
 74
0
 40
0
 40
0
 40
0
 40
0
 40
1
 40
1
 40
1
 40
1
 10
60.100000
 20
96.621559
 30
0.0
 10
60.595042
 20
96.335747
 30
0.0
 10
61.204958
 20
96.335747
 30
0.0
 10
61.700000
 20
96.621559
 30
0.0
  0
SPLINE
  5
110
100
AcDbEntity
  8
0
 62
7
100
AcDbSpline
 70
8
 71
3
 72
8
 73
4
 74
0
 40
0
 40
0
 40
0
 40
0
 40
1
 40
1
 40
1
 40
1
 10
61.700000
 20
96.621559
 30
0.0
 10
62.195042
 20
96.907372
 30
0.0
 10
62.500000
 20
97.435575
 30
0.0
 10
62.500000
 20
98.007200
 30
0.0
  0
LWPOLYLINE
  5
111
100
AcDbEntity
  8
0
 62
7
100
AcDbPolyline
 90
2
 70
0
 10
62.500000
 20
123.007200
 30
0.0
 10
62.500000
 20
98.007200
 30
0.0
  0
SPLINE
  5
112
100
AcDbEntity
  8
0
 62
7
100
AcDbSpline
 70
8
 71
3
 72
8
 73
4
 74
0
 40
0
 40
0
 40
0
 40
0
 40
1
 40
1
 40
1
 40
1
 10
62.500000
 20
153.207200
 30
0.0
 10
62.500000
 20
153.778825
 30
0.0
 10
62.195042
 20
154.307028
 30
0.0
 10
61.700000
 20
154.592841
 30
0.0
  0
SPLINE
  5
113
100
AcDbEntity
  8
0
 62
7
100
AcDbSpline
 70
8
 71
3
 72
8
 73
4
 74
0
 40
0
 40
0
 40
0
 40
0
 40
1
 40
1
 40
1
 40
1
 10
61.700000
 20
154.592841
 30
0.0
 10
61.204958
 20
154.878653
 30
0.0
 10
60.595042
 20
154.878653
 30
0.0
 10
60.100000
 20
154.592841
 30
0.0
  0
SPLINE
  5
114
100
AcDbEntity
  8
0
 62
7
100
AcDbSpline
 70
8
 71
3
 72
8
 73
4
 74
0
 40
0
 40
0
 40
0
 40
0
 40
1
 40
1
 40
1
 40
1
 10
60.100000
 20
154.592841
 30
0.0
 10
59.604958
 20
154.307028
 30
0.0
 10
59.300000
 20
153.778825
 30
0.0
 10
59.300000
 20
153.207200
 30
0.0
  0
LWPOLYLINE
  5
115
100
AcDbEntity
  8
0
 62
7
100
AcDbPolyline
 90
2
 70
0
 10
59.300000
 20
123.007200
 30
0.0
 10
59.300000
 20
98.007200
 30
0.0
  0
LWPOLYLINE
  5
116
100
AcDbEntity
  8
0
 62
7
100
AcDbPolyline
 90
2
 70
0
 10
62.500000
 20
153.207200
 30
0.0
 10
62.500000
 20
128.207200
 30
0.0
  0
SPLINE
  5
117
100
AcDbEntity
  8
0
 62
7
100
AcDbSpline
 70
8
 71
3
 72
8
 73
4
 74
0
 40
0
 40
0
 40
0
 40
0
 40
1
 40
1
 40
1
 40
1
 10
151.100000
 20
67.507200
 30
0.0
 10
151.100000
 20
66.935575
 30
0.0
 10
151.404958
 20
66.407372
 30
0.0
 10
151.900000
 20
66.121559
 30
0.0
  0
SPLINE
  5
118
100
AcDbEntity
  8
0
 62
7
100
AcDbSpline
 70
8
 71
3
 72
8
 73
4
 74
0
 40
0
 40
0
 40
0
 40
0
 40
1
 40
1
 40
1
 40
1
 10
151.900000
 20
66.121559
 30
0.0
 10
152.395042
 20
65.835747
 30
0.0
 10
153.004958
 20
65.835747
 30
0.0
 10
153.500000
 20
66.121559
 30
0.0
  0
SPLINE
  5
119
100
AcDbEntity
  8
0
 62
7
100
AcDbSpline
 70
8
 71
3
 72
8
 73
4
 74
0
 40
0
 40
0
 40
0
 40
0
 40
1
 40
1
 40
1
 40
1
 10
153.500000
 20
66.121559
 30
0.0
 10
153.995042
 20
66.407372
 30
0.0
 10
154.300000
 20
66.935575
 30
0.0
 10
154.300000
 20
67.507200
 30
0.0
  0
SPLINE
  5
11a
100
AcDbEntity
  8
0
 62
7
100
AcDbSpline
 70
8
 71
3
 72
8
 73
4
 74
0
 40
0
 40
0
 40
0
 40
0
 40
1
 40
1
 40
1
 40
1
 10
154.300000
 20
92.507200
 30
0.0
 10
154.300000
 20
93.078825
 30
0.0
 10
153.995042
 20
93.607028
 30
0.0
 10
153.500000
 20
93.892841
 30
0.0
  0
SPLINE
  5
11b
100
AcDbEntity
  8
0
 62
7
100
AcDbSpline
 70
8
 71
3
 72
8
 73
4
 74
0
 40
0
 40
0
 40
0
 40
0
 40
1
 40
1
 40
1
 40
1
 10
153.500000
 20
93.892841
 30
0.0
 10
153.004958
 20
94.178653
 30
0.0
 10
152.395042
 20
94.178653
 30
0.0
 10
151.900000
 20
93.892841
 30
0.0
  0
SPLINE
  5
11c
100
AcDbEntity
  8
0
 62
7
100
AcDbSpline
 70
8
 71
3
 72
8
 73
4
 74
0
 40
0
 40
0
 40
0
 40
0
 40
1
 40
1
 40
1
 40
1
 10
151.900000
 20
93.892841
 30
0.0
 10
151.404958
 20
93.607028
 30
0.0
 10
151.100000
 20
93.078825
 30
0.0
 10
151.100000
 20
92.507200
 30
0.0
  0
LWPOLYLINE
  5
11d
100
AcDbEntity
  8
0
 62
7
100
AcDbPolyline
 90
2
 70
0
 10
59.300000
 20
153.207200
 30
0.0
 10
59.300000
 20
128.207200
 30
0.0
  0
LWPOLYLINE
  5
11e
100
AcDbEntity
  8
0
 62
7
100
AcDbPolyline
 90
2
 70
0
 10
154.300000
 20
92.507200
 30
0.0
 10
154.300000
 20
67.507200
 30
0.0
  0
SPLINE
  5
11f
100
AcDbEntity
  8
0
 62
7
100
AcDbSpline
 70
8
 71
3
 72
8
 73
4
 74
0
 40
0
 40
0
 40
0
 40
0
 40
1
 40
1
 40
1
 40
1
 10
151.100000
 20
98.007200
 30
0.0
 10
151.100000
 20
97.435575
 30
0.0
 10
151.404958
 20
96.907372
 30
0.0
 10
151.900000
 20
96.621559
 30
0.0
  0
SPLINE
  5
120
100
AcDbEntity
  8
0
 62
7
100
AcDbSpline
 70
8
 71
3
 72
8
 73
4
 74
0
 40
0
 40
0
 40
0
 40
0
 40
1
 40
1
 40
1
 40
1
 10
151.900000
 20
96.621559
 30
0.0
 10
152.395042
 20
96.335747
 30
0.0
 10
153.004958
 20
96.335747
 30
0.0
 10
153.500000
 20
96.621559
 30
0.0
  0
SPLINE
  5
121
100
AcDbEntity
  8
0
 62
7
100
AcDbSpline
 70
8
 71
3
 72
8
 73
4
 74
0
 40
0
 40
0
 40
0
 40
0
 40
1
 40
1
 40
1
 40
1
 10
153.500000
 20
96.621559
 30
0.0
 10
153.995042
 20
96.907372
 30
0.0
 10
154.300000
 20
97.435575
 30
0.0
 10
154.300000
 20
98.007200
 30
0.0
  0
SPLINE
  5
122
100
AcDbEntity
  8
0
 62
7
100
AcDbSpline
 70
8
 71
3
 72
8
 73
4
 74
0
 40
0
 40
0
 40
0
 40
0
 40
1
 40
1
 40
1
 40
1
 10
154.300000
 20
123.007200
 30
0.0
 10
154.300000
 20
123.578825
 30
0.0
 10
153.995042
 20
124.107028
 30
0.0
 10
153.500000
 20
124.392841
 30
0.0
  0
SPLINE
  5
123
100
AcDbEntity
  8
0
 62
7
100
AcDbSpline
 70
8
 71
3
 72
8
 73
4
 74
0
 40
0
 40
0
 40
0
 40
0
 40
1
 40
1
 40
1
 40
1
 10
153.500000
 20
124.392841
 30
0.0
 10
153.004958
 20
124.678653
 30
0.0
 10
152.395042
 20
124.678653
 30
0.0
 10
151.900000
 20
124.392841
 30
0.0
  0
SPLINE
  5
124
100
AcDbEntity
  8
0
 62
7
100
AcDbSpline
 70
8
 71
3
 72
8
 73
4
 74
0
 40
0
 40
0
 40
0
 40
0
 40
1
 40
1
 40
1
 40
1
 10
151.900000
 20
124.392841
 30
0.0
 10
151.404958
 20
124.107028
 30
0.0
 10
151.100000
 20
123.578825
 30
0.0
 10
151.100000
 20
123.007200
 30
0.0
  0
LWPOLYLINE
  5
125
100
AcDbEntity
  8
0
 62
7
100
AcDbPolyline
 90
2
 70
0
 10
151.100000
 20
92.507200
 30
0.0
 10
151.100000
 20
67.507200
 30
0.0
  0
LWPOLYLINE
  5
126
100
AcDbEntity
  8
0
 62
7
100
AcDbPolyline
 90
2
 70
0
 10
154.300000
 20
123.007200
 30
0.0
 10
154.300000
 20
98.007200
 30
0.0
  0
SPLINE
  5
127
100
AcDbEntity
  8
0
 62
7
100
AcDbSpline
 70
8
 71
3
 72
8
 73
4
 74
0
 40
0
 40
0
 40
0
 40
0
 40
1
 40
1
 40
1
 40
1
 10
151.100000
 20
128.207200
 30
0.0
 10
151.100000
 20
127.635575
 30
0.0
 10
151.404958
 20
127.107372
 30
0.0
 10
151.900000
 20
126.821559
 30
0.0
  0
SPLINE
  5
128
100
AcDbEntity
  8
0
 62
7
100
AcDbSpline
 70
8
 71
3
 72
8
 73
4
 74
0
 40
0
 40
0
 40
0
 40
0
 40
1
 40
1
 40
1
 40
1
 10
151.900000
 20
126.821559
 30
0.0
 10
152.395042
 20
126.535747
 30
0.0
 10
153.004958
 20
126.535747
 30
0.0
 10
153.500000
 20
126.821559
 30
0.0
  0
SPLINE
  5
129
100
AcDbEntity
  8
0
 62
7
100
AcDbSpline
 70
8
 71
3
 72
8
 73
4
 74
0
 40
0
 40
0
 40
0
 40
0
 40
1
 40
1
 40
1
 40
1
 10
153.500000
 20
126.821559
 30
0.0
 10
153.995042
 20
127.107372
 30
0.0
 10
154.300000
 20
127.635575
 30
0.0
 10
154.300000
 20
128.207200
 30
0.0
  0
LWPOLYLINE
  5
12a
100
AcDbEntity
  8
0
 62
7
100
AcDbPolyline
 90
2
 70
0
 10
151.100000
 20
123.007200
 30
0.0
 10
151.100000
 20
98.007200
 30
0.0
  0
LWPOLYLINE
  5
12b
100
AcDbEntity
  8
0
 62
7
100
AcDbPolyline
 90
2
 70
0
 10
154.300000
 20
153.207200
 30
0.0
 10
154.300000
 20
128.207200
 30
0.0
  0
SPLINE
  5
12c
100
AcDbEntity
  8
0
 62
7
100
AcDbSpline
 70
8
 71
3
 72
8
 73
4
 74
0
 40
0
 40
0
 40
0
 40
0
 40
1
 40
1
 40
1
 40
1
 10
154.300000
 20
153.207200
 30
0.0
 10
154.300000
 20
153.778825
 30
0.0
 10
153.995042
 20
154.307028
 30
0.0
 10
153.500000
 20
154.592841
 30
0.0
  0
SPLINE
  5
12d
100
AcDbEntity
  8
0
 62
7
100
AcDbSpline
 70
8
 71
3
 72
8
 73
4
 74
0
 40
0
 40
0
 40
0
 40
0
 40
1
 40
1
 40
1
 40
1
 10
153.500000
 20
154.592841
 30
0.0
 10
153.004958
 20
154.878653
 30
0.0
 10
152.395042
 20
154.878653
 30
0.0
 10
151.900000
 20
154.592841
 30
0.0
  0
SPLINE
  5
12e
100
AcDbEntity
  8
0
 62
7
100
AcDbSpline
 70
8
 71
3
 72
8
 73
4
 74
0
 40
0
 40
0
 40
0
 40
0
 40
1
 40
1
 40
1
 40
1
 10
151.900000
 20
154.592841
 30
0.0
 10
151.404958
 20
154.307028
 30
0.0
 10
151.100000
 20
153.778825
 30
0.0
 10
151.100000
 20
153.207200
 30
0.0
  0
SPLINE
  5
12f
100
AcDbEntity
  8
0
 62
7
100
AcDbSpline
 70
8
 71
3
 72
8
 73
4
 74
0
 40
0
 40
0
 40
0
 40
0
 40
1
 40
1
 40
1
 40
1
 10
74.650003
 20
76.757200
 30
0.0
 10
74.650003
 20
75.873544
 30
0.0
 10
73.933659
 20
75.157200
 30
0.0
 10
73.050003
 20
75.157200
 30
0.0
  0
SPLINE
  5
130
100
AcDbEntity
  8
0
 62
7
100
AcDbSpline
 70
8
 71
3
 72
8
 73
4
 74
0
 40
0
 40
0
 40
0
 40
0
 40
1
 40
1
 40
1
 40
1
 10
73.050003
 20
75.157200
 30
0.0
 10
72.166347
 20
75.157200
 30
0.0
 10
71.450003
 20
75.873544
 30
0.0
 10
71.450003
 20
76.757200
 30
0.0
  0
SPLINE
  5
131
100
AcDbEntity
  8
0
 62
7
100
AcDbSpline
 70
8
 71
3
 72
8
 73
4
 74
0
 40
0
 40
0
 40
0
 40
0
 40
1
 40
1
 40
1
 40
1
 10
71.450003
 20
76.757200
 30
0.0
 10
71.450003
 20
77.640856
 30
0.0
 10
72.166347
 20
78.357200
 30
0.0
 10
73.050003
 20
78.357200
 30
0.0
  0
SPLINE
  5
132
100
AcDbEntity
  8
0
 62
7
100
AcDbSpline
 70
8
 71
3
 72
8
 73
4
 74
0
 40
0
 40
0
 40
0
 40
0
 40
1
 40
1
 40
1
 40
1
 10
73.050003
 20
78.357200
 30
0.0
 10
73.933659
 20
78.357200
 30
0.0
 10
74.650003
 20
77.640856
 30
0.0
 10
74.650003
 20
76.757200
 30
0.0
  0
LWPOLYLINE
  5
133
100
AcDbEntity
  8
0
 62
7
100
AcDbPolyline
 90
2
 70
0
 10
151.100000
 20
153.207200
 30
0.0
 10
151.100000
 20
128.207200
 30
0.0
  0
SPLINE
  5
134
100
AcDbEntity
  8
0
 62
7
100
AcDbSpline
 70
8
 71
3
 72
8
 73
4
 74
0
 40
0
 40
0
 40
0
 40
0
 40
1
 40
1
 40
1
 40
1
 10
148.650000
 20
148.007200
 30
0.0
 10
148.650000
 20
147.582854
 30
0.0
 10
148.481429
 20
147.175887
 30
0.0
 10
148.181371
 20
146.875829
 30
0.0
  0
SPLINE
  5
135
100
AcDbEntity
  8
0
 62
7
100
AcDbSpline
 70
8
 71
3
 72
8
 73
4
 74
0
 40
0
 40
0
 40
0
 40
0
 40
1
 40
1
 40
1
 40
1
 10
148.181371
 20
146.875829
 30
0.0
 10
147.881313
 20
146.575771
 30
0.0
 10
147.474346
 20
146.407200
 30
0.0
 10
147.050000
 20
146.407200
 30
0.0
  0
SPLINE
  5
136
100
AcDbEntity
  8
0
 62
7
100
AcDbSpline
 70
8
 71
3
 72
8
 73
4
 74
0
 40
0
 40
0
 40
0
 40
0
 40
1
 40
1
 40
1
 40
1
 10
147.050000
 20
146.407200
 30
0.0
 10
146.625654
 20
146.407200
 30
0.0
 10
146.218687
 20
146.575771
 30
0.0
 10
145.918629
 20
146.875829
 30
0.0
  0
SPLINE
  5
137
100
AcDbEntity
  8
0
 62
7
100
AcDbSpline
 70
8
 71
3
 72
8
 73
4
 74
0
 40
0
 40
0
 40
0
 40
0
 40
1
 40
1
 40
1
 40
1
 10
145.918629
 20
146.875829
 30
0.0
 10
145.618571
 20
147.175887
 30
0.0
 10
145.450000
 20
147.582854
 30
0.0
 10
145.450000
 20
148.007200
 30
0.0
  0
SPLINE
  5
138
100
AcDbEntity
  8
0
 62
7
100
AcDbSpline
 70
8
 71
3
 72
8
 73
4
 74
0
 40
0
 40
0
 40
0
 40
0
 40
1
 40
1
 40
1
 40
1
 10
145.450000
 20
148.007200
 30
0.0
 10
145.450000
 20
148.431546
 30
0.0
 10
145.618571
 20
148.838513
 30
0.0
 10
145.918629
 20
149.138571
 30
0.0
  0
SPLINE
  5
139
100
AcDbEntity
  8
0
 62
7
100
AcDbSpline
 70
8
 71
3
 72
8
 73
4
 74
0
 40
0
 40
0
 40
0
 40
0
 40
1
 40
1
 40
1
 40
1
 10
145.918629
 20
149.138571
 30
0.0
 10
146.218687
 20
149.438629
 30
0.0
 10
146.625654
 20
149.607200
 30
0.0
 10
147.050000
 20
149.607200
 30
0.0
  0
SPLINE
  5
13a
100
AcDbEntity
  8
0
 62
7
100
AcDbSpline
 70
8
 71
3
 72
8
 73
4
 74
0
 40
0
 40
0
 40
0
 40
0
 40
1
 40
1
 40
1
 40
1
 10
147.050000
 20
149.607200
 30
0.0
 10
147.474346
 20
149.607200
 30
0.0
 10
147.881313
 20
149.438629
 30
0.0
 10
148.181371
 20
149.138571
 30
0.0
  0
SPLINE
  5
13b
100
AcDbEntity
  8
0
 62
7
100
AcDbSpline
 70
8
 71
3
 72
8
 73
4
 74
0
 40
0
 40
0
 40
0
 40
0
 40
1
 40
1
 40
1
 40
1
 10
148.181371
 20
149.138571
 30
0.0
 10
148.481429
 20
148.838513
 30
0.0
 10
148.650000
 20
148.431546
 30
0.0
 10
148.650000
 20
148.007200
 30
0.0
  0
LWPOLYLINE
  5
13c
100
AcDbEntity
  8
0
 62
7
100
AcDbPolyline
 90
1
 70
1
 10
74.650003
 20
76.757200
 30
0.0
  0
SPLINE
  5
13d
100
AcDbEntity
  8
0
 62
7
100
AcDbSpline
 70
8
 71
3
 72
8
 73
4
 74
0
 40
0
 40
0
 40
0
 40
0
 40
1
 40
1
 40
1
 40
1
 10
76.650003
 20
148.007200
 30
0.0
 10
76.650003
 20
147.123544
 30
0.0
 10
75.933659
 20
146.407200
 30
0.0
 10
75.050003
 20
146.407200
 30
0.0
  0
SPLINE
  5
13e
100
AcDbEntity
  8
0
 62
7
100
AcDbSpline
 70
8
 71
3
 72
8
 73
4
 74
0
 40
0
 40
0
 40
0
 40
0
 40
1
 40
1
 40
1
 40
1
 10
75.050003
 20
146.407200
 30
0.0
 10
74.166347
 20
146.407200
 30
0.0
 10
73.450003
 20
147.123544
 30
0.0
 10
73.450003
 20
148.007200
 30
0.0
  0
SPLINE
  5
13f
100
AcDbEntity
  8
0
 62
7
100
AcDbSpline
 70
8
 71
3
 72
8
 73
4
 74
0
 40
0
 40
0
 40
0
 40
0
 40
1
 40
1
 40
1
 40
1
 10
73.450003
 20
148.007200
 30
0.0
 10
73.450003
 20
148.890856
 30
0.0
 10
74.166347
 20
149.607200
 30
0.0
 10
75.050003
 20
149.607200
 30
0.0
  0
SPLINE
  5
140
100
AcDbEntity
  8
0
 62
7
100
AcDbSpline
 70
8
 71
3
 72
8
 73
4
 74
0
 40
0
 40
0
 40
0
 40
0
 40
1
 40
1
 40
1
 40
1
 10
75.050003
 20
149.607200
 30
0.0
 10
75.933659
 20
149.607200
 30
0.0
 10
76.650003
 20
148.890856
 30
0.0
 10
76.650003
 20
148.007200
 30
0.0
  0
LWPOLYLINE
  5
141
100
AcDbEntity
  8
0
 62
7
100
AcDbPolyline
 90
1
 70
1
 10
148.650000
 20
148.007200
 30
0.0
  0
SPLINE
  5
142
100
AcDbEntity
  8
0
 62
7
100
AcDbSpline
 70
8
 71
3
 72
8
 73
4
 74
0
 40
0
 40
0
 40
0
 40
0
 40
1
 40
1
 40
1
 40
1
 10
75.000002
 20
153.207201
 30
0.0
 10
75.000002
 20
152.782855
 30
0.0
 10
74.831431
 20
152.375888
 30
0.0
 10
74.531373
 20
152.075830
 30
0.0
  0
SPLINE
  5
143
100
AcDbEntity
  8
0
 62
7
100
AcDbSpline
 70
8
 71
3
 72
8
 73
4
 74
0
 40
0
 40
0
 40
0
 40
0
 40
1
 40
1
 40
1
 40
1
 10
74.531373
 20
152.075830
 30
0.0
 10
74.231315
 20
151.775772
 30
0.0
 10
73.824348
 20
151.607201
 30
0.0
 10
73.400002
 20
151.607201
 30
0.0
  0
SPLINE
  5
144
100
AcDbEntity
  8
0
 62
7
100
AcDbSpline
 70
8
 71
3
 72
8
 73
4
 74
0
 40
0
 40
0
 40
0
 40
0
 40
1
 40
1
 40
1
 40
1
 10
73.400002
 20
151.607201
 30
0.0
 10
72.975656
 20
151.607201
 30
0.0
 10
72.568689
 20
151.775772
 30
0.0
 10
72.268631
 20
152.075830
 30
0.0
  0
SPLINE
  5
145
100
AcDbEntity
  8
0
 62
7
100
AcDbSpline
 70
8
 71
3
 72
8
 73
4
 74
0
 40
0
 40
0
 40
0
 40
0
 40
1
 40
1
 40
1
 40
1
 10
72.268631
 20
152.075830
 30
0.0
 10
71.968573
 20
152.375888
 30
0.0
 10
71.800002
 20
152.782855
 30
0.0
 10
71.800002
 20
153.207201
 30
0.0
  0
SPLINE
  5
146
100
AcDbEntity
  8
0
 62
7
100
AcDbSpline
 70
8
 71
3
 72
8
 73
4
 74
0
 40
0
 40
0
 40
0
 40
0
 40
1
 40
1
 40
1
 40
1
 10
71.800002
 20
153.207201
 30
0.0
 10
71.800002
 20
153.631547
 30
0.0
 10
71.968573
 20
154.038514
 30
0.0
 10
72.268631
 20
154.338572
 30
0.0
  0
SPLINE
  5
147
100
AcDbEntity
  8
0
 62
7
100
AcDbSpline
 70
8
 71
3
 72
8
 73
4
 74
0
 40
0
 40
0
 40
0
 40
0
 40
1
 40
1
 40
1
 40
1
 10
72.268631
 20
154.338572
 30
0.0
 10
72.568689
 20
154.638630
 30
0.0
 10
72.975656
 20
154.807201
 30
0.0
 10
73.400002
 20
154.807201
 30
0.0
  0
SPLINE
  5
148
100
AcDbEntity
  8
0
 62
7
100
AcDbSpline
 70
8
 71
3
 72
8
 73
4
 74
0
 40
0
 40
0
 40
0
 40
0
 40
1
 40
1
 40
1
 40
1
 10
73.400002
 20
154.807201
 30
0.0
 10
73.824348
 20
154.807201
 30
0.0
 10
74.231315
 20
154.638630
 30
0.0
 10
74.531373
 20
154.338572
 30
0.0
  0
SPLINE
  5
149
100
AcDbEntity
  8
0
 62
7
100
AcDbSpline
 70
8
 71
3
 72
8
 73
4
 74
0
 40
0
 40
0
 40
0
 40
0
 40
1
 40
1
 40
1
 40
1
 10
74.531373
 20
154.338572
 30
0.0
 10
74.831431
 20
154.038514
 30
0.0
 10
75.000002
 20
153.631547
 30
0.0
 10
75.000002
 20
153.207201
 30
0.0
  0
LWPOLYLINE
  5
14a
100
AcDbEntity
  8
0
 62
7
100
AcDbPolyline
 90
1
 70
1
 10
76.650003
 20
148.007200
 30
0.0
  0
SPLINE
  5
14b
100
AcDbEntity
  8
0
 62
7
100
AcDbSpline
 70
8
 71
3
 72
8
 73
4
 74
0
 40
0
 40
0
 40
0
 40
0
 40
1
 40
1
 40
1
 40
1
 10
148.650000
 20
67.457200
 30
0.0
 10
148.650000
 20
67.032854
 30
0.0
 10
148.481429
 20
66.625887
 30
0.0
 10
148.181371
 20
66.325829
 30
0.0
  0
SPLINE
  5
14c
100
AcDbEntity
  8
0
 62
7
100
AcDbSpline
 70
8
 71
3
 72
8
 73
4
 74
0
 40
0
 40
0
 40
0
 40
0
 40
1
 40
1
 40
1
 40
1
 10
148.181371
 20
66.325829
 30
0.0
 10
147.881313
 20
66.025771
 30
0.0
 10
147.474346
 20
65.857200
 30
0.0
 10
147.050000
 20
65.857200
 30
0.0
  0
SPLINE
  5
14d
100
AcDbEntity
  8
0
 62
7
100
AcDbSpline
 70
8
 71
3
 72
8
 73
4
 74
0
 40
0
 40
0
 40
0
 40
0
 40
1
 40
1
 40
1
 40
1
 10
147.050000
 20
65.857200
 30
0.0
 10
146.625654
 20
65.857200
 30
0.0
 10
146.218687
 20
66.025771
 30
0.0
 10
145.918629
 20
66.325829
 30
0.0
  0
SPLINE
  5
14e
100
AcDbEntity
  8
0
 62
7
100
AcDbSpline
 70
8
 71
3
 72
8
 73
4
 74
0
 40
0
 40
0
 40
0
 40
0
 40
1
 40
1
 40
1
 40
1
 10
145.918629
 20
66.325829
 30
0.0
 10
145.618571
 20
66.625887
 30
0.0
 10
145.450000
 20
67.032854
 30
0.0
 10
145.450000
 20
67.457200
 30
0.0
  0
SPLINE
  5
14f
100
AcDbEntity
  8
0
 62
7
100
AcDbSpline
 70
8
 71
3
 72
8
 73
4
 74
0
 40
0
 40
0
 40
0
 40
0
 40
1
 40
1
 40
1
 40
1
 10
145.450000
 20
67.457200
 30
0.0
 10
145.450000
 20
67.881546
 30
0.0
 10
145.618571
 20
68.288513
 30
0.0
 10
145.918629
 20
68.588571
 30
0.0
  0
SPLINE
  5
150
100
AcDbEntity
  8
0
 62
7
100
AcDbSpline
 70
8
 71
3
 72
8
 73
4
 74
0
 40
0
 40
0
 40
0
 40
0
 40
1
 40
1
 40
1
 40
1
 10
145.918629
 20
68.588571
 30
0.0
 10
146.218687
 20
68.888629
 30
0.0
 10
146.625654
 20
69.057200
 30
0.0
 10
147.050000
 20
69.057200
 30
0.0
  0
SPLINE
  5
151
100
AcDbEntity
  8
0
 62
7
100
AcDbSpline
 70
8
 71
3
 72
8
 73
4
 74
0
 40
0
 40
0
 40
0
 40
0
 40
1
 40
1
 40
1
 40
1
 10
147.050000
 20
69.057200
 30
0.0
 10
147.474346
 20
69.057200
 30
0.0
 10
147.881313
 20
68.888629
 30
0.0
 10
148.181371
 20
68.588571
 30
0.0
  0
SPLINE
  5
152
100
AcDbEntity
  8
0
 62
7
100
AcDbSpline
 70
8
 71
3
 72
8
 73
4
 74
0
 40
0
 40
0
 40
0
 40
0
 40
1
 40
1
 40
1
 40
1
 10
148.181371
 20
68.588571
 30
0.0
 10
148.481429
 20
68.288513
 30
0.0
 10
148.650000
 20
67.881546
 30
0.0
 10
148.650000
 20
67.457200
 30
0.0
  0
LWPOLYLINE
  5
153
100
AcDbEntity
  8
0
 62
7
100
AcDbPolyline
 90
1
 70
1
 10
75.000002
 20
153.207201
 30
0.0
  0
SPLINE
  5
154
100
AcDbEntity
  8
0
 62
7
100
AcDbSpline
 70
8
 71
3
 72
8
 73
4
 74
0
 40
0
 40
0
 40
0
 40
0
 40
1
 40
1
 40
1
 40
1
 10
75.000002
 20
68.707200
 30
0.0
 10
75.000002
 20
68.282854
 30
0.0
 10
74.831431
 20
67.875887
 30
0.0
 10
74.531373
 20
67.575829
 30
0.0
  0
SPLINE
  5
155
100
AcDbEntity
  8
0
 62
7
100
AcDbSpline
 70
8
 71
3
 72
8
 73
4
 74
0
 40
0
 40
0
 40
0
 40
0
 40
1
 40
1
 40
1
 40
1
 10
74.531373
 20
67.575829
 30
0.0
 10
74.231315
 20
67.275771
 30
0.0
 10
73.824348
 20
67.107200
 30
0.0
 10
73.400002
 20
67.107200
 30
0.0
  0
SPLINE
  5
156
100
AcDbEntity
  8
0
 62
7
100
AcDbSpline
 70
8
 71
3
 72
8
 73
4
 74
0
 40
0
 40
0
 40
0
 40
0
 40
1
 40
1
 40
1
 40
1
 10
73.400002
 20
67.107200
 30
0.0
 10
72.975656
 20
67.107200
 30
0.0
 10
72.568689
 20
67.275771
 30
0.0
 10
72.268631
 20
67.575829
 30
0.0
  0
SPLINE
  5
157
100
AcDbEntity
  8
0
 62
7
100
AcDbSpline
 70
8
 71
3
 72
8
 73
4
 74
0
 40
0
 40
0
 40
0
 40
0
 40
1
 40
1
 40
1
 40
1
 10
72.268631
 20
67.575829
 30
0.0
 10
71.968573
 20
67.875887
 30
0.0
 10
71.800002
 20
68.282854
 30
0.0
 10
71.800002
 20
68.707200
 30
0.0
  0
SPLINE
  5
158
100
AcDbEntity
  8
0
 62
7
100
AcDbSpline
 70
8
 71
3
 72
8
 73
4
 74
0
 40
0
 40
0
 40
0
 40
0
 40
1
 40
1
 40
1
 40
1
 10
71.800002
 20
68.707200
 30
0.0
 10
71.800002
 20
69.131546
 30
0.0
 10
71.968573
 20
69.538513
 30
0.0
 10
72.268631
 20
69.838571
 30
0.0
  0
SPLINE
  5
159
100
AcDbEntity
  8
0
 62
7
100
AcDbSpline
 70
8
 71
3
 72
8
 73
4
 74
0
 40
0
 40
0
 40
0
 40
0
 40
1
 40
1
 40
1
 40
1
 10
72.268631
 20
69.838571
 30
0.0
 10
72.568689
 20
70.138629
 30
0.0
 10
72.975656
 20
70.307200
 30
0.0
 10
73.400002
 20
70.307200
 30
0.0
  0
SPLINE
  5
15a
100
AcDbEntity
  8
0
 62
7
100
AcDbSpline
 70
8
 71
3
 72
8
 73
4
 74
0
 40
0
 40
0
 40
0
 40
0
 40
1
 40
1
 40
1
 40
1
 10
73.400002
 20
70.307200
 30
0.0
 10
73.824348
 20
70.307200
 30
0.0
 10
74.231315
 20
70.138629
 30
0.0
 10
74.531373
 20
69.838571
 30
0.0
  0
SPLINE
  5
15b
100
AcDbEntity
  8
0
 62
7
100
AcDbSpline
 70
8
 71
3
 72
8
 73
4
 74
0
 40
0
 40
0
 40
0
 40
0
 40
1
 40
1
 40
1
 40
1
 10
74.531373
 20
69.838571
 30
0.0
 10
74.831431
 20
69.538513
 30
0.0
 10
75.000002
 20
69.131546
 30
0.0
 10
75.000002
 20
68.707200
 30
0.0
  0
LWPOLYLINE
  5
15c
100
AcDbEntity
  8
0
 62
7
100
AcDbPolyline
 90
1
 70
1
 10
148.650000
 20
67.457200
 30
0.0
  0
SPLINE
  5
15d
100
AcDbEntity
  8
0
 62
7
100
AcDbSpline
 70
8
 71
3
 72
8
 73
4
 74
0
 40
0
 40
0
 40
0
 40
0
 40
1
 40
1
 40
1
 40
1
 10
148.650000
 20
153.207201
 30
0.0
 10
148.650000
 20
152.782855
 30
0.0
 10
148.481429
 20
152.375888
 30
0.0
 10
148.181371
 20
152.075830
 30
0.0
  0
SPLINE
  5
15e
100
AcDbEntity
  8
0
 62
7
100
AcDbSpline
 70
8
 71
3
 72
8
 73
4
 74
0
 40
0
 40
0
 40
0
 40
0
 40
1
 40
1
 40
1
 40
1
 10
148.181371
 20
152.075830
 30
0.0
 10
147.881313
 20
151.775772
 30
0.0
 10
147.474346
 20
151.607201
 30
0.0
 10
147.050000
 20
151.607201
 30
0.0
  0
SPLINE
  5
15f
100
AcDbEntity
  8
0
 62
7
100
AcDbSpline
 70
8
 71
3
 72
8
 73
4
 74
0
 40
0
 40
0
 40
0
 40
0
 40
1
 40
1
 40
1
 40
1
 10
147.050000
 20
151.607201
 30
0.0
 10
146.625654
 20
151.607201
 30
0.0
 10
146.218687
 20
151.775772
 30
0.0
 10
145.918629
 20
152.075830
 30
0.0
  0
SPLINE
  5
160
100
AcDbEntity
  8
0
 62
7
100
AcDbSpline
 70
8
 71
3
 72
8
 73
4
 74
0
 40
0
 40
0
 40
0
 40
0
 40
1
 40
1
 40
1
 40
1
 10
145.918629
 20
152.075830
 30
0.0
 10
145.618571
 20
152.375888
 30
0.0
 10
145.450000
 20
152.782855
 30
0.0
 10
145.450000
 20
153.207201
 30
0.0
  0
SPLINE
  5
161
100
AcDbEntity
  8
0
 62
7
100
AcDbSpline
 70
8
 71
3
 72
8
 73
4
 74
0
 40
0
 40
0
 40
0
 40
0
 40
1
 40
1
 40
1
 40
1
 10
145.450000
 20
153.207201
 30
0.0
 10
145.450000
 20
153.631547
 30
0.0
 10
145.618571
 20
154.038514
 30
0.0
 10
145.918629
 20
154.338572
 30
0.0
  0
SPLINE
  5
162
100
AcDbEntity
  8
0
 62
7
100
AcDbSpline
 70
8
 71
3
 72
8
 73
4
 74
0
 40
0
 40
0
 40
0
 40
0
 40
1
 40
1
 40
1
 40
1
 10
145.918629
 20
154.338572
 30
0.0
 10
146.218687
 20
154.638630
 30
0.0
 10
146.625654
 20
154.807201
 30
0.0
 10
147.050000
 20
154.807201
 30
0.0
  0
SPLINE
  5
163
100
AcDbEntity
  8
0
 62
7
100
AcDbSpline
 70
8
 71
3
 72
8
 73
4
 74
0
 40
0
 40
0
 40
0
 40
0
 40
1
 40
1
 40
1
 40
1
 10
147.050000
 20
154.807201
 30
0.0
 10
147.474346
 20
154.807201
 30
0.0
 10
147.881313
 20
154.638630
 30
0.0
 10
148.181371
 20
154.338572
 30
0.0
  0
SPLINE
  5
164
100
AcDbEntity
  8
0
 62
7
100
AcDbSpline
 70
8
 71
3
 72
8
 73
4
 74
0
 40
0
 40
0
 40
0
 40
0
 40
1
 40
1
 40
1
 40
1
 10
148.181371
 20
154.338572
 30
0.0
 10
148.481429
 20
154.038514
 30
0.0
 10
148.650000
 20
153.631547
 30
0.0
 10
148.650000
 20
153.207201
 30
0.0
  0
LWPOLYLINE
  5
165
100
AcDbEntity
  8
0
 62
7
100
AcDbPolyline
 90
1
 70
1
 10
75.000002
 20
68.707200
 30
0.0
  0
LWPOLYLINE
  5
166
100
AcDbEntity
  8
0
 62
7
100
AcDbPolyline
 90
1
 70
1
 10
148.650000
 20
153.207201
 30
0.0
  0
LWPOLYLINE
  5
167
100
AcDbEntity
  8
0
 62
7
100
AcDbPolyline
 90
2
 70
0
 10
57.300000
 20
59.107200
 30
0.0
 10
156.300000
 20
59.107200
 30
0.0
  0
LWPOLYLINE
  5
168
100
AcDbEntity
  8
0
 62
7
100
AcDbPolyline
 90
2
 70
0
 10
56.800000
 20
158.607200
 30
0.0
 10
56.800000
 20
59.607200
 30
0.0
  0
LWPOLYLINE
  5
169
100
AcDbEntity
  8
0
 62
7
100
AcDbPolyline
 90
2
 70
0
 10
156.300000
 20
159.107200
 30
0.0
 10
57.300000
 20
159.107200
 30
0.0
  0
SPLINE
  5
16a
100
AcDbEntity
  8
0
 62
7
100
AcDbSpline
 70
8
 71
3
 72
8
 73
4
 74
0
 40
0
 40
0
 40
0
 40
0
 40
1
 40
1
 40
1
 40
1
 10
156.300000
 20
59.107200
 30
0.0
 10
156.432608
 20
59.107200
 30
0.0
 10
156.559785
 20
59.159878
 30
0.0
 10
156.653553
 20
59.253647
 30
0.0
  0
SPLINE
  5
16b
100
AcDbEntity
  8
0
 62
7
100
AcDbSpline
 70
8
 71
3
 72
8
 73
4
 74
0
 40
0
 40
0
 40
0
 40
0
 40
1
 40
1
 40
1
 40
1
 10
156.653553
 20
59.253647
 30
0.0
 10
156.747322
 20
59.347415
 30
0.0
 10
156.800000
 20
59.474592
 30
0.0
 10
156.800000
 20
59.607200
 30
0.0
  0
SPLINE
  5
16c
100
AcDbEntity
  8
0
 62
7
100
AcDbSpline
 70
8
 71
3
 72
8
 73
4
 74
0
 40
0
 40
0
 40
0
 40
0
 40
1
 40
1
 40
1
 40
1
 10
156.800000
 20
158.607200
 30
0.0
 10
156.800000
 20
158.739808
 30
0.0
 10
156.747322
 20
158.866985
 30
0.0
 10
156.653553
 20
158.960753
 30
0.0
  0
SPLINE
  5
16d
100
AcDbEntity
  8
0
 62
7
100
AcDbSpline
 70
8
 71
3
 72
8
 73
4
 74
0
 40
0
 40
0
 40
0
 40
0
 40
1
 40
1
 40
1
 40
1
 10
156.653553
 20
158.960753
 30
0.0
 10
156.559785
 20
159.054522
 30
0.0
 10
156.432608
 20
159.107200
 30
0.0
 10
156.300000
 20
159.107200
 30
0.0
  0
SPLINE
  5
16e
100
AcDbEntity
  8
0
 62
7
100
AcDbSpline
 70
8
 71
3
 72
8
 73
4
 74
0
 40
0
 40
0
 40
0
 40
0
 40
1
 40
1
 40
1
 40
1
 10
57.300000
 20
159.107200
 30
0.0
 10
57.167392
 20
159.107200
 30
0.0
 10
57.040215
 20
159.054522
 30
0.0
 10
56.946447
 20
158.960753
 30
0.0
  0
SPLINE
  5
16f
100
AcDbEntity
  8
0
 62
7
100
AcDbSpline
 70
8
 71
3
 72
8
 73
4
 74
0
 40
0
 40
0
 40
0
 40
0
 40
1
 40
1
 40
1
 40
1
 10
56.946447
 20
158.960753
 30
0.0
 10
56.852678
 20
158.866985
 30
0.0
 10
56.800000
 20
158.739808
 30
0.0
 10
56.800000
 20
158.607200
 30
0.0
  0
SPLINE
  5
170
100
AcDbEntity
  8
0
 62
7
100
AcDbSpline
 70
8
 71
3
 72
8
 73
4
 74
0
 40
0
 40
0
 40
0
 40
0
 40
1
 40
1
 40
1
 40
1
 10
56.800000
 20
59.607200
 30
0.0
 10
56.800000
 20
59.474592
 30
0.0
 10
56.852678
 20
59.347415
 30
0.0
 10
56.946447
 20
59.253647
 30
0.0
  0
SPLINE
  5
171
100
AcDbEntity
  8
0
 62
7
100
AcDbSpline
 70
8
 71
3
 72
8
 73
4
 74
0
 40
0
 40
0
 40
0
 40
0
 40
1
 40
1
 40
1
 40
1
 10
56.946447
 20
59.253647
 30
0.0
 10
57.040215
 20
59.159878
 30
0.0
 10
57.167392
 20
59.107200
 30
0.0
 10
57.300000
 20
59.107200
 30
0.0
  0
LWPOLYLINE
  5
172
100
AcDbEntity
  8
0
 62
7
100
AcDbPolyline
 90
2
 70
0
 10
156.800000
 20
59.607200
 30
0.0
 10
156.800000
 20
158.607200
 30
0.0
  0
ENDSEC
  0
SECTION
  2
OBJECTS
  0
DICTIONARY
  5
C
330
0
100
AcDbDictionary
  3
ACAD_GROUP
350
D
  3
ACAD_MLINESTYLE
350
17
  0
DICTIONARY
  5
D
330
C
100
AcDbDictionary
  0
DICTIONARY
  5
1A
330
C
100
AcDbDictionary
  0
DICTIONARY
  5
17
330
C
100
AcDbDictionary
  3
STANDARD
350
18
  0
DICTIONARY
  5
19
330
C
100
AcDbDictionary
  0
ENDSEC
  0
EOF
