999
"DXF R12 Output" (www.mydxf.blogspot.com)
 0 
SECTION
 2 
HEADER
 9 
$ACADVER
 1 
AC1009
 9 
$EXTMIN
 10 
 0 
 20 
 0 
 9 
$EXTMAX
 10 
 8.5 
 20 
 11 
 0 
ENDSEC
 0 
SECTION
 2 
ENTITIES
0
LINE
8
Layer 1
10
76.500000
20
105.507000
11
175.500000
21
105.507000
0
LINE
8
Layer 1
10
175.500000
20
105.507000
11
175.853553
21
105.653447
0
LINE
8
Layer 1
10
175.853553
20
105.653447
11
176.000000
21
106.007000
0
LINE
8
Layer 1
10
76.000000
20
106.007000
11
76.146447
21
105.653447
0
LINE
8
Layer 1
10
76.146447
20
105.653447
11
76.500000
21
105.507000
0
LINE
8
Layer 1
10
164.700000
20
197.507000
11
164.578207
21
196.894707
0
LINE
8
Layer 1
10
164.578207
20
196.894707
11
164.231371
21
196.375629
0
LINE
8
Layer 1
10
164.231371
20
196.375629
11
163.712293
21
196.028793
0
LINE
8
Layer 1
10
163.712293
20
196.028793
11
163.100000
21
195.907000
0
LINE
8
Layer 1
10
163.100000
20
195.907000
11
162.487707
21
196.028793
0
LINE
8
Layer 1
10
162.487707
20
196.028793
11
161.968629
21
196.375629
0
LINE
8
Layer 1
10
161.968629
20
196.375629
11
161.621793
21
196.894707
0
LINE
8
Layer 1
10
161.621793
20
196.894707
11
161.500000
21
197.507000
0
LINE
8
Layer 1
10
161.500000
20
197.507000
11
161.621793
21
198.119293
0
LINE
8
Layer 1
10
161.621793
20
198.119293
11
161.968629
21
198.638371
0
LINE
8
Layer 1
10
161.968629
20
198.638371
11
162.487707
21
198.985207
0
LINE
8
Layer 1
10
162.487707
20
198.985207
11
163.100000
21
199.107000
0
LINE
8
Layer 1
10
163.100000
20
199.107000
11
163.722792
21
198.981264
0
LINE
8
Layer 1
10
163.722792
20
198.981264
11
164.231371
21
198.638371
0
LINE
8
Layer 1
10
164.231371
20
198.638371
11
164.574264
21
198.129792
0
LINE
8
Layer 1
10
164.574264
20
198.129792
11
164.700000
21
197.507000
0
LINE
8
Layer 1
10
164.700000
20
197.507000
11
164.700000
21
197.507000
0
LINE
8
Layer 1
10
170.300000
20
197.107000
11
170.300000
21
172.107000
0
LINE
8
Layer 1
10
173.500000
20
197.107000
11
173.500000
21
172.107000
0
LINE
8
Layer 1
10
173.500000
20
197.107000
11
173.285641
21
197.907000
0
LINE
8
Layer 1
10
173.285641
20
197.907000
11
172.700000
21
198.492641
0
LINE
8
Layer 1
10
172.700000
20
198.492641
11
171.900000
21
198.707000
0
LINE
8
Layer 1
10
171.900000
20
198.707000
11
171.100000
21
198.492641
0
LINE
8
Layer 1
10
171.100000
20
198.492641
11
170.514359
21
197.907000
0
LINE
8
Layer 1
10
170.514359
20
197.907000
11
170.300000
21
197.107000
0
LINE
8
Layer 1
10
76.500000
20
203.007000
11
76.146447
21
202.860553
0
LINE
8
Layer 1
10
76.146447
20
202.860553
11
76.000000
21
202.507000
0
LINE
8
Layer 1
10
176.000000
20
106.007000
11
176.000000
21
202.507000
0
LINE
8
Layer 1
10
170.300000
20
166.907000
11
170.300000
21
141.907000
0
LINE
8
Layer 1
10
170.300000
20
141.907000
11
170.514359
21
141.107000
0
LINE
8
Layer 1
10
170.514359
20
141.107000
11
171.100000
21
140.521359
0
LINE
8
Layer 1
10
171.100000
20
140.521359
11
171.900000
21
140.307000
0
LINE
8
Layer 1
10
171.900000
20
140.307000
11
172.700000
21
140.521359
0
LINE
8
Layer 1
10
172.700000
20
140.521359
11
173.285641
21
141.107000
0
LINE
8
Layer 1
10
173.285641
20
141.107000
11
173.500000
21
141.907000
0
LINE
8
Layer 1
10
173.500000
20
166.907000
11
173.500000
21
141.907000
0
LINE
8
Layer 1
10
176.000000
20
202.507000
11
175.853553
21
202.860553
0
LINE
8
Layer 1
10
175.853553
20
202.860553
11
175.500000
21
203.007000
0
LINE
8
Layer 1
10
76.000000
20
202.507000
11
76.000000
21
106.007000
0
LINE
8
Layer 1
10
175.500000
20
203.007000
11
76.500000
21
203.007000
0
LINE
8
Layer 1
10
88.550000
20
111.507000
11
88.428207
21
110.894707
0
LINE
8
Layer 1
10
88.428207
20
110.894707
11
88.081371
21
110.375629
0
LINE
8
Layer 1
10
88.081371
20
110.375629
11
87.562293
21
110.028793
0
LINE
8
Layer 1
10
87.562293
20
110.028793
11
86.950000
21
109.907000
0
LINE
8
Layer 1
10
86.950000
20
109.907000
11
86.337707
21
110.028793
0
LINE
8
Layer 1
10
86.337707
20
110.028793
11
85.818629
21
110.375629
0
LINE
8
Layer 1
10
85.818629
20
110.375629
11
85.471793
21
110.894707
0
LINE
8
Layer 1
10
85.471793
20
110.894707
11
85.350000
21
111.507000
0
LINE
8
Layer 1
10
85.350000
20
111.507000
11
85.471793
21
112.119293
0
LINE
8
Layer 1
10
85.471793
20
112.119293
11
85.818629
21
112.638371
0
LINE
8
Layer 1
10
85.818629
20
112.638371
11
86.337707
21
112.985207
0
LINE
8
Layer 1
10
86.337707
20
112.985207
11
86.950000
21
113.107000
0
LINE
8
Layer 1
10
86.950000
20
113.107000
11
87.562293
21
112.985207
0
LINE
8
Layer 1
10
87.562293
20
112.985207
11
88.081371
21
112.638371
0
LINE
8
Layer 1
10
88.081371
20
112.638371
11
88.428207
21
112.119293
0
LINE
8
Layer 1
10
88.428207
20
112.119293
11
88.550000
21
111.507000
0
LINE
8
Layer 1
10
88.550000
20
111.507000
11
88.550000
21
111.507000
0
LINE
8
Layer 1
10
81.700000
20
136.407000
11
81.700000
21
111.407000
0
LINE
8
Layer 1
10
78.500000
20
136.407000
11
78.500000
21
111.407000
0
LINE
8
Layer 1
10
78.500000
20
166.907000
11
78.500000
21
141.907000
0
LINE
8
Layer 1
10
81.700000
20
136.407000
11
81.485641
21
137.207000
0
LINE
8
Layer 1
10
81.485641
20
137.207000
11
80.900000
21
137.792641
0
LINE
8
Layer 1
10
80.900000
20
137.792641
11
80.100000
21
138.007000
0
LINE
8
Layer 1
10
80.100000
20
138.007000
11
79.300000
21
137.792641
0
LINE
8
Layer 1
10
79.300000
20
137.792641
11
78.714359
21
137.207000
0
LINE
8
Layer 1
10
78.714359
20
137.207000
11
78.500000
21
136.407000
0
LINE
8
Layer 1
10
78.500000
20
197.107000
11
78.500000
21
172.107000
0
LINE
8
Layer 1
10
81.700000
20
166.907000
11
81.700000
21
141.907000
0
LINE
8
Layer 1
10
81.700000
20
197.107000
11
81.485641
21
197.907000
0
LINE
8
Layer 1
10
81.485641
20
197.907000
11
80.900000
21
198.492641
0
LINE
8
Layer 1
10
80.900000
20
198.492641
11
80.100000
21
198.707000
0
LINE
8
Layer 1
10
80.100000
20
198.707000
11
79.300000
21
198.492641
0
LINE
8
Layer 1
10
79.300000
20
198.492641
11
78.714359
21
197.907000
0
LINE
8
Layer 1
10
78.714359
20
197.907000
11
78.500000
21
197.107000
0
LINE
8
Layer 1
10
78.500000
20
172.107000
11
78.714359
21
171.307000
0
LINE
8
Layer 1
10
78.714359
20
171.307000
11
79.300000
21
170.721359
0
LINE
8
Layer 1
10
79.300000
20
170.721359
11
80.100000
21
170.507000
0
LINE
8
Layer 1
10
80.100000
20
170.507000
11
80.900000
21
170.721359
0
LINE
8
Layer 1
10
80.900000
20
170.721359
11
81.485641
21
171.307000
0
LINE
8
Layer 1
10
81.485641
20
171.307000
11
81.700000
21
172.107000
0
LINE
8
Layer 1
10
78.500000
20
111.407000
11
78.714359
21
110.607000
0
LINE
8
Layer 1
10
78.714359
20
110.607000
11
79.300000
21
110.021359
0
LINE
8
Layer 1
10
79.300000
20
110.021359
11
80.100000
21
109.807000
0
LINE
8
Layer 1
10
80.100000
20
109.807000
11
80.900000
21
110.021359
0
LINE
8
Layer 1
10
80.900000
20
110.021359
11
81.485641
21
110.607000
0
LINE
8
Layer 1
10
81.485641
20
110.607000
11
81.700000
21
111.407000
0
LINE
8
Layer 1
10
78.500000
20
141.907000
11
78.714359
21
141.107000
0
LINE
8
Layer 1
10
78.714359
20
141.107000
11
79.300000
21
140.521359
0
LINE
8
Layer 1
10
79.300000
20
140.521359
11
80.100000
21
140.307000
0
LINE
8
Layer 1
10
80.100000
20
140.307000
11
80.900000
21
140.521359
0
LINE
8
Layer 1
10
80.900000
20
140.521359
11
81.485641
21
141.107000
0
LINE
8
Layer 1
10
81.485641
20
141.107000
11
81.700000
21
141.907000
0
LINE
8
Layer 1
10
81.700000
20
166.907000
11
81.485641
21
167.707000
0
LINE
8
Layer 1
10
81.485641
20
167.707000
11
80.900000
21
168.292641
0
LINE
8
Layer 1
10
80.900000
20
168.292641
11
80.100000
21
168.507000
0
LINE
8
Layer 1
10
80.100000
20
168.507000
11
79.300000
21
168.292641
0
LINE
8
Layer 1
10
79.300000
20
168.292641
11
78.714359
21
167.707000
0
LINE
8
Layer 1
10
78.714359
20
167.707000
11
78.500000
21
166.907000
0
LINE
8
Layer 1
10
81.700000
20
197.107000
11
81.700000
21
172.107000
0
LINE
8
Layer 1
10
89.700000
20
122.007000
11
89.574264
21
121.384208
0
LINE
8
Layer 1
10
89.574264
20
121.384208
11
89.231371
21
120.875629
0
LINE
8
Layer 1
10
89.231371
20
120.875629
11
88.722792
21
120.532736
0
LINE
8
Layer 1
10
88.722792
20
120.532736
11
88.100000
21
120.407000
0
LINE
8
Layer 1
10
88.100000
20
120.407000
11
87.487707
21
120.528793
0
LINE
8
Layer 1
10
87.487707
20
120.528793
11
86.968629
21
120.875629
0
LINE
8
Layer 1
10
86.968629
20
120.875629
11
86.621793
21
121.394707
0
LINE
8
Layer 1
10
86.621793
20
121.394707
11
86.500000
21
122.007000
0
LINE
8
Layer 1
10
86.500000
20
122.007000
11
86.625736
21
122.629792
0
LINE
8
Layer 1
10
86.625736
20
122.629792
11
86.968629
21
123.138371
0
LINE
8
Layer 1
10
86.968629
20
123.138371
11
87.477208
21
123.481264
0
LINE
8
Layer 1
10
87.477208
20
123.481264
11
88.100000
21
123.607000
0
LINE
8
Layer 1
10
88.100000
20
123.607000
11
88.722792
21
123.481264
0
LINE
8
Layer 1
10
88.722792
20
123.481264
11
89.231371
21
123.138371
0
LINE
8
Layer 1
10
89.231371
20
123.138371
11
89.574264
21
122.629792
0
LINE
8
Layer 1
10
89.574264
20
122.629792
11
89.700000
21
122.007000
0
LINE
8
Layer 1
10
89.700000
20
122.007000
11
89.700000
21
122.007000
0
LINE
8
Layer 1
10
164.700000
20
191.907000
11
164.578207
21
191.294707
0
LINE
8
Layer 1
10
164.578207
20
191.294707
11
164.231371
21
190.775629
0
LINE
8
Layer 1
10
164.231371
20
190.775629
11
163.712293
21
190.428793
0
LINE
8
Layer 1
10
163.712293
20
190.428793
11
163.100000
21
190.307000
0
LINE
8
Layer 1
10
163.100000
20
190.307000
11
162.487707
21
190.428793
0
LINE
8
Layer 1
10
162.487707
20
190.428793
11
161.968629
21
190.775629
0
LINE
8
Layer 1
10
161.968629
20
190.775629
11
161.621793
21
191.294707
0
LINE
8
Layer 1
10
161.621793
20
191.294707
11
161.500000
21
191.907000
0
LINE
8
Layer 1
10
161.500000
20
191.907000
11
161.621793
21
192.519293
0
LINE
8
Layer 1
10
161.621793
20
192.519293
11
161.968629
21
193.038371
0
LINE
8
Layer 1
10
161.968629
20
193.038371
11
162.487707
21
193.385207
0
LINE
8
Layer 1
10
162.487707
20
193.385207
11
163.100000
21
193.507000
0
LINE
8
Layer 1
10
163.100000
20
193.507000
11
163.722792
21
193.381264
0
LINE
8
Layer 1
10
163.722792
20
193.381264
11
164.231371
21
193.038371
0
LINE
8
Layer 1
10
164.231371
20
193.038371
11
164.574264
21
192.529792
0
LINE
8
Layer 1
10
164.574264
20
192.529792
11
164.700000
21
191.907000
0
LINE
8
Layer 1
10
164.700000
20
191.907000
11
164.700000
21
191.907000
0
LINE
8
Layer 1
10
92.700000
20
191.907000
11
92.574264
21
191.284208
0
LINE
8
Layer 1
10
92.574264
20
191.284208
11
92.231371
21
190.775629
0
LINE
8
Layer 1
10
92.231371
20
190.775629
11
91.722792
21
190.432736
0
LINE
8
Layer 1
10
91.722792
20
190.432736
11
91.100000
21
190.307000
0
LINE
8
Layer 1
10
91.100000
20
190.307000
11
90.487707
21
190.428793
0
LINE
8
Layer 1
10
90.487707
20
190.428793
11
89.968629
21
190.775629
0
LINE
8
Layer 1
10
89.968629
20
190.775629
11
89.621793
21
191.294707
0
LINE
8
Layer 1
10
89.621793
20
191.294707
11
89.500000
21
191.907000
0
LINE
8
Layer 1
10
89.500000
20
191.907000
11
89.625736
21
192.529792
0
LINE
8
Layer 1
10
89.625736
20
192.529792
11
89.968629
21
193.038371
0
LINE
8
Layer 1
10
89.968629
20
193.038371
11
90.477208
21
193.381264
0
LINE
8
Layer 1
10
90.477208
20
193.381264
11
91.100000
21
193.507000
0
LINE
8
Layer 1
10
91.100000
20
193.507000
11
91.722792
21
193.381264
0
LINE
8
Layer 1
10
91.722792
20
193.381264
11
92.231371
21
193.038371
0
LINE
8
Layer 1
10
92.231371
20
193.038371
11
92.574264
21
192.529792
0
LINE
8
Layer 1
10
92.574264
20
192.529792
11
92.700000
21
191.907000
0
LINE
8
Layer 1
10
92.700000
20
191.907000
11
92.700000
21
191.907000
0
LINE
8
Layer 1
10
173.500000
20
166.907000
11
173.285641
21
167.707000
0
LINE
8
Layer 1
10
173.285641
20
167.707000
11
172.700000
21
168.292641
0
LINE
8
Layer 1
10
172.700000
20
168.292641
11
171.900000
21
168.507000
0
LINE
8
Layer 1
10
171.900000
20
168.507000
11
171.100000
21
168.292641
0
LINE
8
Layer 1
10
171.100000
20
168.292641
11
170.514359
21
167.707000
0
LINE
8
Layer 1
10
170.514359
20
167.707000
11
170.300000
21
166.907000
0
LINE
8
Layer 1
10
170.300000
20
172.107000
11
170.514359
21
171.307000
0
LINE
8
Layer 1
10
170.514359
20
171.307000
11
171.100000
21
170.721359
0
LINE
8
Layer 1
10
171.100000
20
170.721359
11
171.900000
21
170.507000
0
LINE
8
Layer 1
10
171.900000
20
170.507000
11
172.700000
21
170.721359
0
LINE
8
Layer 1
10
172.700000
20
170.721359
11
173.285641
21
171.307000
0
LINE
8
Layer 1
10
173.285641
20
171.307000
11
173.500000
21
172.107000
0
LINE
8
Layer 1
10
170.300000
20
136.407000
11
170.300000
21
111.407000
0
LINE
8
Layer 1
10
173.500000
20
136.407000
11
173.500000
21
111.407000
0
LINE
8
Layer 1
10
173.500000
20
136.407000
11
173.285641
21
137.207000
0
LINE
8
Layer 1
10
173.285641
20
137.207000
11
172.700000
21
137.792641
0
LINE
8
Layer 1
10
172.700000
20
137.792641
11
171.900000
21
138.007000
0
LINE
8
Layer 1
10
171.900000
20
138.007000
11
171.100000
21
137.792641
0
LINE
8
Layer 1
10
171.100000
20
137.792641
11
170.514359
21
137.207000
0
LINE
8
Layer 1
10
170.514359
20
137.207000
11
170.300000
21
136.407000
0
LINE
8
Layer 1
10
170.300000
20
111.407000
11
170.514359
21
110.607000
0
LINE
8
Layer 1
10
170.514359
20
110.607000
11
171.100000
21
110.021359
0
LINE
8
Layer 1
10
171.100000
20
110.021359
11
171.900000
21
109.807000
0
LINE
8
Layer 1
10
171.900000
20
109.807000
11
172.700000
21
110.021359
0
LINE
8
Layer 1
10
172.700000
20
110.021359
11
173.285641
21
110.607000
0
LINE
8
Layer 1
10
173.285641
20
110.607000
11
173.500000
21
111.407000
0
LINE
8
Layer 1
10
168.500000
20
111.507000
11
168.378207
21
110.894707
0
LINE
8
Layer 1
10
168.378207
20
110.894707
11
168.031371
21
110.375629
0
LINE
8
Layer 1
10
168.031371
20
110.375629
11
167.512293
21
110.028793
0
LINE
8
Layer 1
10
167.512293
20
110.028793
11
166.900000
21
109.907000
0
LINE
8
Layer 1
10
166.900000
20
109.907000
11
166.287707
21
110.028793
0
LINE
8
Layer 1
10
166.287707
20
110.028793
11
165.768629
21
110.375629
0
LINE
8
Layer 1
10
165.768629
20
110.375629
11
165.421793
21
110.894707
0
LINE
8
Layer 1
10
165.421793
20
110.894707
11
165.300000
21
111.507000
0
LINE
8
Layer 1
10
165.300000
20
111.507000
11
165.421793
21
112.119293
0
LINE
8
Layer 1
10
165.421793
20
112.119293
11
165.768629
21
112.638371
0
LINE
8
Layer 1
10
165.768629
20
112.638371
11
166.287707
21
112.985207
0
LINE
8
Layer 1
10
166.287707
20
112.985207
11
166.900000
21
113.107000
0
LINE
8
Layer 1
10
166.900000
20
113.107000
11
167.512293
21
112.985207
0
LINE
8
Layer 1
10
167.512293
20
112.985207
11
168.031371
21
112.638371
0
LINE
8
Layer 1
10
168.031371
20
112.638371
11
168.378207
21
112.119293
0
LINE
8
Layer 1
10
168.378207
20
112.119293
11
168.500000
21
111.507000
0
LINE
8
Layer 1
10
168.500000
20
111.507000
11
168.500000
21
111.507000
0
LINE
8
Layer 1
10
91.050000
20
197.507000
11
90.928207
21
196.894707
0
LINE
8
Layer 1
10
90.928207
20
196.894707
11
90.581371
21
196.375629
0
LINE
8
Layer 1
10
90.581371
20
196.375629
11
90.062293
21
196.028793
0
LINE
8
Layer 1
10
90.062293
20
196.028793
11
89.450000
21
195.907000
0
LINE
8
Layer 1
10
89.450000
20
195.907000
11
88.837707
21
196.028793
0
LINE
8
Layer 1
10
88.837707
20
196.028793
11
88.318629
21
196.375629
0
LINE
8
Layer 1
10
88.318629
20
196.375629
11
87.971793
21
196.894707
0
LINE
8
Layer 1
10
87.971793
20
196.894707
11
87.850000
21
197.507000
0
LINE
8
Layer 1
10
87.850000
20
197.507000
11
87.971793
21
198.119293
0
LINE
8
Layer 1
10
87.971793
20
198.119293
11
88.318629
21
198.638371
0
LINE
8
Layer 1
10
88.318629
20
198.638371
11
88.837707
21
198.985207
0
LINE
8
Layer 1
10
88.837707
20
198.985207
11
89.450000
21
199.107000
0
LINE
8
Layer 1
10
89.450000
20
199.107000
11
90.062293
21
198.985207
0
LINE
8
Layer 1
10
90.062293
20
198.985207
11
90.581371
21
198.638371
0
LINE
8
Layer 1
10
90.581371
20
198.638371
11
90.928207
21
198.119293
0
LINE
8
Layer 1
10
90.928207
20
198.119293
11
91.050000
21
197.507000
0
LINE
8
Layer 1
10
91.050000
20
197.507000
11
91.050000
21
197.507000
 0 
ENDSEC
 0 
EOF